Coordinates
version=1
nRows=28
nColumns=23
inDegrees=yes

Units are S.I. units (second, meters, Newtons, ...)
If the header above contains a line with 'inDegrees', this indicates whether rotational values are in degrees (yes) or radians (no).

endheader
time	sacrum_pitch	sacrum_roll	sacrum_yaw	sacrum_x	sacrum_y	sacrum_z	sacroiliac_r_flx	hip_r_flx	hip_r_add	hip_r_int	knee_r_flx	ankle_r_flx	ankle_r_add	ankle_r_int	sacroiliac_l_flx	hip_l_flx	hip_l_add	hip_l_int	knee_l_flx	ankle_l_flx	ankle_l_add	ankle_l_int
      3.26000000	     19.77341223	     -5.14973283	     16.79468505	      0.11341211	      0.05773446	      0.00521027	      3.69999987	     44.90591014	    -17.70712740	    -10.41302966	    -87.69593224	     30.82929154	     -4.99999985	      0.00000000	      3.70000000	     22.49918721	    -17.07253047	     18.32109971	   -124.68190956	     27.98504712	     -4.99999985	      0.00000000
      3.26500000	     18.95600894	     -4.26005523	     16.71721931	      0.11534825	      0.05779161	      0.00593131	      3.69999987	     44.32704650	    -17.27568858	    -10.58610866	    -87.93904105	     30.59369196	     -4.99999985	      0.00000000	      3.70000000	     22.18090124	    -17.23673350	     18.17117830	   -124.33334351	     27.68905980	     -4.99999985	      0.00000000
      3.27000000	     18.46416421	     -2.31383488	     16.87340407	      0.11743830	      0.05762048	      0.00684174	      3.69999987	     44.87146894	    -17.65066068	     -9.73646883	    -91.66787084	     33.12771468	     -4.99999985	      0.00000000	      3.70000000	     21.44069019	    -16.52887206	     18.39307649	   -123.01789501	     22.13130573	     -4.99999985	      0.00000000
      3.27500000	     17.71140156	     -1.56341164	     16.58547149	      0.11923099	      0.05768536	      0.00749688	      3.69999987	     44.20106778	    -17.28376092	     -9.88941360	    -91.91357635	     32.85466216	     -4.99999985	      0.00000000	      3.70000000	     21.19405779	    -16.66055483	     18.23601288	   -122.65955224	     21.94774224	     -4.99999985	      0.00000000
      3.28000000	     17.84953843	      0.48025685	     16.24604946	      0.12126012	      0.05735442	      0.00830841	      3.69999987	     44.62660208	    -17.49680171	     -8.81572596	    -96.72863332	     36.47504234	     -4.99999985	      0.00000000	      3.70000000	     19.68409701	    -16.02343672	     18.07039584	   -121.16328376	     15.79187229	     -4.99999985	      0.00000000
      3.28500000	     17.59582997	      1.31154934	     15.86667368	      0.12308528	      0.05722800	      0.00900854	      3.69999987	     44.58354748	    -17.06431040	     -8.65223663	    -99.33549742	     37.56865812	     -4.99999985	      0.00000000	      3.70000000	     19.08612280	    -16.22393608	     18.37070571	   -120.29515434	     13.70977706	     -4.99999985	      0.00000000
      3.29000000	     17.00217939	      1.88345207	     15.40008536	      0.12475175	      0.05734705	      0.00952308	      3.69999987	     43.91359195	    -16.80362868	     -8.76783833	    -99.61645770	     37.27725038	     -4.99999985	      0.00000000	      3.70000000	     18.93252946	    -16.27401019	     18.23623655	   -119.93186827	     13.56286525	     -4.99999985	      0.00000000
      3.29500000	     17.59743882	      3.35201686	     14.77682534	      0.12665728	      0.05691327	      0.01007920	      3.69999987	     44.22519174	    -16.72487848	     -8.04489144	   -104.52406154	     39.60540961	     -4.99999985	      0.00000000	      3.70000000	     17.48819303	    -15.89628414	     18.25228117	   -119.26425217	      8.61637056	     -4.99999985	      0.00000000
      3.30000000	     17.44837781	      4.47881902	     14.24478411	      0.12842694	      0.05690034	      0.01033796	      3.69999987	     43.52633677	    -17.08155482	     -7.39415329	   -106.34548967	     41.00756018	     -4.99999985	      0.00000000	      3.70000000	     17.68748228	    -14.45870573	     18.14036065	   -119.24910522	      0.54652229	     -4.99999985	      0.00000000
      3.30500000	     16.81235771	      4.87339954	     13.61372549	      0.13019722	      0.05711531	      0.01058604	      3.69999987	     42.78115635	    -16.95450030	     -7.45587450	   -106.46283454	     40.57798951	     -4.99999985	      0.00000000	      3.70000000	     17.60640443	    -14.55674242	     18.05691201	   -119.05826241	      0.71136985	     -4.99999985	      0.00000000
      3.31000000	     17.38269343	      5.41470446	     13.14714858	      0.13199510	      0.05674380	      0.01079067	      3.69999987	     42.35256823	    -16.55732515	     -7.13829835	   -110.09328423	     41.83555641	     -4.99999985	      0.00000000	      3.70000000	     17.97734601	    -14.09494557	     18.65824287	   -121.12809210	     -0.73703791	     -4.99999985	      0.00000000
      3.31500000	     16.73271009	      5.70393200	     12.48193858	      0.13390268	      0.05709719	      0.01086307	      3.69999987	     41.51900450	    -16.50832344	     -7.11494436	   -110.17684676	     41.36785600	     -4.99999985	      0.00000000	      3.70000000	     17.93163170	    -14.15818268	     18.54417367	   -120.98585763	     -0.53754841	     -4.99999985	      0.00000000
      3.32000000	     17.65651254	      6.81218628	     11.97043928	      0.13573597	      0.05662995	      0.01072190	      3.69999987	     40.41823591	    -16.58623107	     -5.74970572	   -113.67574090	     42.92207741	     -4.99999985	      0.00000000	      3.70000000	     19.22143208	    -12.74256022	     18.79980315	   -125.09793996	     -1.87467354	     -4.99999985	      0.00000000
      3.32500000	     17.87073227	      7.15428264	     11.50850664	      0.13766491	      0.05663848	      0.01059142	      3.69999987	     39.03503307	    -16.32352738	     -5.26377267	   -115.08367886	     43.16880415	     -4.99999985	      0.00000000	      3.70000000	     20.58641590	    -12.29156243	     19.22267683	   -127.96636035	     -1.19803409	     -4.99999985	      0.00000000
      3.33000000	     18.18002380	      7.49350486	     11.04226965	      0.13962146	      0.05664121	      0.01036972	      3.69999987	     37.41468835	    -16.03851412	     -4.66094007	   -116.40856344	     43.39070241	     -4.99999985	      0.00000000	      3.70000000	     22.40795850	    -11.82068585	     19.63269919	   -131.28995751	      0.43801201	     -4.99999985	      0.00000000
      3.33500000	     17.78327788	      7.60382728	     10.65489629	      0.14153388	      0.05681251	      0.01013438	      3.69999987	     36.49341905	    -15.39613736	     -3.92036524	   -117.29427718	     43.52950601	     -4.99999985	      0.00000000	      3.70000000	     23.26535600	    -11.62231307	     20.27375669	   -134.23683169	     14.28104360	     -4.99999985	      0.00000000
      3.34000000	     18.12789641	      7.76127509	     10.23503247	      0.14357870	      0.05691981	      0.00979935	      3.69999987	     34.47908743	    -15.09554748	     -3.43103423	   -118.01222294	     43.52860327	     -4.99999985	      0.00000000	      3.70000000	     24.50168766	    -11.48858755	     20.70276503	   -136.84489220	     23.28733272	     -4.99999985	      0.00000000
      3.34500000	     18.38429613	      7.81311632	      9.75062603	      0.14562320	      0.05705685	      0.00940938	      3.69999987	     32.70273209	    -14.81892217	     -2.92597353	   -118.77276498	     43.22548765	     -4.99999985	      0.00000000	      3.70000000	     26.02502953	    -11.52508036	     20.77250207	   -138.65453574	     32.77249817	     -4.99999985	      0.00000000
      3.35000000	     18.66960832	      7.85049190	      9.31187377	      0.14768675	      0.05721404	      0.00898743	      3.69999987	     30.80721805	    -14.62703075	     -2.49488704	   -119.32115698	     42.73567074	     -4.99999985	      0.00000000	      3.70000000	     28.11988313	    -11.49659163	     20.57218774	   -139.65676324	     40.66139376	     -4.99999985	      0.00000000
      3.35500000	     19.02905836	      7.80480510	      8.83997351	      0.14975417	      0.05738257	      0.00849986	      3.69999987	     28.77906099	    -14.60830874	     -2.10929670	   -119.58626850	     42.05991574	     -4.99999985	      0.00000000	      3.70000000	     30.88798768	    -11.45552816	     19.85344041	   -140.02685161	     46.00126273	     -4.99999985	      0.00000000
      3.36000000	     19.58439390	      7.73290073	      8.43049116	      0.15186101	      0.05747338	      0.00797042	      3.69999987	     26.51204324	    -14.64879413	     -1.82518915	   -119.88802128	     41.31174752	     -4.99999985	      0.00000000	      3.70000000	     34.06103397	    -11.36504390	     18.61186512	   -139.92529410	     48.77666699	     -4.99999985	      0.00000000
      3.36500000	     20.40317945	      7.65771747	      7.97982409	      0.15392004	      0.05753018	      0.00747807	      3.69999987	     24.32388746	    -14.62755644	     -1.57287254	   -120.37251086	     40.50128708	     -4.99999985	      0.00000000	      3.70000000	     37.22653097	    -11.22673843	     17.15354228	   -138.56594786	     50.50229991	     -4.99999985	      0.00000000
      3.37000000	     20.81857950	      7.41102387	      7.54324317	      0.15601259	      0.05770307	      0.00691197	      3.69999987	     22.08367676	    -14.69933472	     -1.35046524	   -120.27509273	     39.27976747	     -4.99999985	      0.00000000	      3.70000000	     40.50035239	    -11.48368010	     14.79841319	   -136.42853516	     52.09443291	     -4.99999985	      0.00000000
      3.37500000	     21.51551281	      7.23406283	      7.23179161	      0.15801895	      0.05778709	      0.00639692	      3.69999987	     19.95407160	    -14.67042421	     -1.09442212	   -120.28085042	     38.00732450	     -4.99999985	      0.00000000	      3.70000000	     43.61430576	    -11.76905856	     12.16152053	   -133.26188170	     52.69432990	     -4.99999985	      0.00000000
      3.38000000	     21.55583592	      7.15175423	      6.45549723	      0.15999540	      0.05799781	      0.00577588	      3.69999987	     18.57612121	    -14.90864469	     -0.23101638	   -119.96321687	     36.16425714	     -4.99999985	      0.00000000	      3.70000000	     46.65847809	    -12.92159455	      8.20220341	   -129.22304973	     53.43074754	     -4.99999985	      0.00000000
      3.38500000	     21.85837278	      7.25366341	      5.94359260	      0.16192747	      0.05810923	      0.00523376	      3.69999987	     17.18474623	    -15.05402935	      0.50697915	   -120.12551691	     34.11577102	     -4.99999985	      0.00000000	      3.70000000	     48.90052836	    -13.63091069	      4.42760668	   -124.35376416	     53.31076601	     -4.99999985	      0.00000000
      3.39000000	     22.52789476	      6.97805586	      5.89788372	      0.16391371	      0.05809129	      0.00481956	      3.69999987	     14.95328967	    -14.84724104	      0.35357719	   -120.06323032	     32.82396507	     -4.99999985	      0.00000000	      3.70000000	     50.68893900	    -13.88417459	      1.85322007	   -119.56654835	     52.37001033	     -4.99999985	      0.00000000
      3.39500000	     22.56484194	      7.35807742	      5.04376394	      0.16586338	      0.05832658	      0.00423765	      3.69999987	     13.84275538	    -15.46091980	      1.37011490	   -119.54783451	     30.42538755	     -4.99999985	      0.00000000	      3.70000000	     51.08690185	    -14.95815775	     -2.76838662	   -113.04304694	     52.44875905	     -4.99999985	      0.00000000
